<svg t="1605424039926" class="icon" viewBox="0 0 1025 1024" version="1.1" xmlns="http://www.w3.org/2000/svg" p-id="36516" width="200" height="200"><path d="M837.236477 0 186.16364 0 0 319.937512c0 0 0 109.778559 0 127.975005 0 33.993361 12.197618 71.386057 31.993751 95.981254l0.999805 352.131224c0 70.586214 58.988479 127.975005 131.974224 127.975005l692.864675 0c72.985745 0 134.173794-57.18883 134.173794-127.975005l0-351.931263c22.395626-26.394845 31.993751-53.589533 31.993751-95.981254 0-35.193126 0-127.975005 0-127.975005L837.236477 0zM928.018746 896.024995c0 35.393087-33.393478 63.987502-69.986331 63.987502L164.96778 960.012498c-36.392892 0-68.786565-28.594415-68.786565-63.987502l0-63.987502 831.837532 0L928.018746 896.024995zM928.018746 768.04999l-831.837532 0L96.181215 575.887522c18.396407 0 45.991017 0 62.787737 0 34.393283 0 88.78266-30.594025 111.978129-77.584847 25.794962 45.791056 74.185511 77.584847 120.376489 77.584847 48.790471 0 102.180043-28.994337 120.376489-70.986136 17.996485 40.991994 70.586214 70.986136 118.37688 70.986136 47.390744 0 96.181215-34.993165 121.176333-82.383909 28.994337 48.190588 52.589729 82.383909 113.177895 82.383909 9.398164 0 55.789104 1.599688 63.987502 0L928.418668 768.04999zM960.212459 448.112478c-0.399922 44.39133-51.589924 63.987502-95.981254 63.987502-51.589924 0-97.780902-30.993946-97.780902-63.987502l-29.994142 0c0 32.193712-57.388791 63.987502-106.779145 63.987502-47.390744 0-102.180043-32.593634-102.180043-63.987502l-30.793986 0c0 32.193712-55.989065 63.987502-103.379809 63.987502-49.390353 0-105.77934-22.595587-105.77934-63.987502L256.749854 448.112478c0 32.193712-49.390353 64.987307-96.781097 64.987307-48.190588 0-95.781293-20.795938-95.781293-64.987307l0-63.987502 896.024995 0L960.212459 448.112478zM65.387229 320.137473 214.558094 63.987502 808.642062 63.987502l152.37024 256.149971L65.387229 320.137473z" p-id="36517"></path></svg>